<?xml version="1.0" standalone="no"?>
<!DOCTYPE svg PUBLIC "-//W3C//DTD SVG 20010904//EN"
 "http://www.w3.org/TR/2001/REC-SVG-20010904/DTD/svg10.dtd">
<svg version="1.0" xmlns="http://www.w3.org/2000/svg"
 width="194.000000pt" height="54.000000pt" viewBox="0 0 194.000000 54.000000"
 preserveAspectRatio="xMidYMid meet">
<metadata>
Created by potrace 1.16, written by Peter Selinger 2001-2019
</metadata>
<g transform="translate(0.000000,54.000000) scale(0.100000,-0.100000)"
fill="#000000" stroke="none">
<path d="M1347 353 c-4 -3 -7 -17 -7 -30 0 -19 -6 -23 -32 -24 -32 -2 -32 -2
7 -9 l40 -7 -44 -2 c-31 -1 -52 -8 -69 -23 -14 -13 -21 -16 -17 -8 8 13 7 13
-8 1 -13 -10 -17 -29 -17 -75 0 -33 4 -67 9 -74 5 -8 7 15 6 55 -1 37 -1 50 2
28 8 -82 36 -104 136 -104 l57 1 0 139 0 139 -28 0 c-16 0 -32 -3 -35 -7z"/>
<path d="M650 325 c0 -22 4 -25 40 -25 l40 0 0 -110 0 -110 35 0 35 0 0 110 0
110 45 0 c41 0 45 2 45 25 l0 25 -120 0 -120 0 0 -25z"/>
<path d="M2 296 c2 -24 5 -42 7 -40 6 6 31 -17 31 -28 0 -5 -6 -6 -12 -2 -7 4
-5 -2 5 -13 23 -26 117 -77 117 -64 0 6 -5 11 -12 11 -16 0 -101 51 -94 57 3
3 17 -4 31 -15 14 -12 42 -26 60 -32 l35 -11 -20 -39 c-11 -22 -20 -42 -20
-45 0 -11 87 -5 100 8 12 10 12 9 1 -5 -8 -10 -31 -18 -59 -21 l-47 -3 46 -2
c48 -2 72 13 74 47 1 9 27 60 59 114 l57 97 60 0 c44 0 61 -4 65 -15 12 -31
-15 -45 -87 -45 -38 0 -69 -3 -69 -6 0 -4 16 -32 35 -64 19 -32 42 -74 50 -94
15 -35 17 -36 63 -34 l47 1 -50 7 -50 7 48 1 c26 1 47 5 47 9 0 3 -12 27 -26
52 -15 25 -23 43 -19 38 5 -4 19 0 33 9 13 8 26 13 29 10 3 -3 -6 -11 -21 -17
-14 -7 -26 -16 -26 -21 0 -5 14 0 31 12 16 12 28 25 25 28 -4 3 1 16 9 29 10
15 15 41 13 71 l-3 47 -202 2 c-138 1 -205 -2 -209 -9 -4 -7 -2 -8 4 -4 7 4
12 2 12 -3 0 -6 20 -11 45 -11 43 0 45 -1 35 -20 -6 -11 -14 -19 -18 -19 -20
3 -25 -2 -12 -12 11 -8 2 -9 -34 -5 -52 6 -97 37 -95 65 0 11 3 9 9 -5 5 -12
13 -25 19 -28 5 -4 3 6 -5 22 -12 25 -20 29 -64 31 l-50 2 2 -45z"/>
<path d="M890 180 l0 -100 30 0 29 0 3 77 c3 78 3 78 32 81 19 2 26 0 21 -8
-4 -6 1 -17 10 -24 16 -11 16 -13 -2 -27 -17 -13 -17 -13 -3 6 14 18 13 19 -1
8 -10 -8 -14 -24 -13 -45 3 -31 3 -31 -6 -8 l-9 25 2 -25 c1 -14 7 -25 12 -25
6 0 22 -9 38 -19 20 -14 37 -17 65 -13 25 5 32 3 22 -3 -23 -15 -63 -12 -90 6
l-25 16 22 -20 c19 -16 36 -20 95 -19 51 1 64 3 43 8 l-30 7 32 1 32 1 -5 58
c-3 31 -7 72 -9 90 -3 23 0 30 8 26 7 -4 8 -3 4 1 -12 14 -36 18 -109 20 -37
1 -65 -1 -63 -6 3 -4 1 -10 -5 -14 -5 -3 -10 1 -10 9 0 13 -12 16 -60 16 l-60
0 0 -100z"/>
<path d="M1530 180 l0 -100 30 0 30 0 0 69 c0 72 12 96 47 89 20 -4 20 -3 22
-93 l1 -65 31 0 31 0 -4 89 c-2 54 0 83 6 74 6 -11 10 -12 16 -4 3 7 5 -13 2
-43 -4 -51 -2 -56 29 -88 31 -30 89 -47 89 -26 0 4 5 8 12 8 7 0 2 -10 -10
-23 -22 -22 -23 -22 -53 -4 -26 14 -34 15 -47 5 -8 -7 -18 -12 -21 -10 -3 2
-7 -1 -9 -7 -2 -6 8 -15 23 -21 14 -5 24 -13 22 -17 -9 -15 76 -13 108 3 45
21 55 50 55 164 l0 100 -73 0 c-43 0 -81 -5 -92 -13 -18 -12 -36 -14 -50 -7
-3 1 -9 3 -14 4 -5 0 -13 4 -17 9 -4 4 -43 7 -86 7 l-78 0 0 -100z"/>
</g>
</svg>
